<svg width="146" height="40" viewBox="0 0 146 40" fill="none" xmlns="http://www.w3.org/2000/svg">
<path d="M54.892 25.34C52.9693 23.4547 52.008 21.0653 52.008 18.172C52.008 15.2787 52.9693 12.8893 54.892 11.004C56.8333 9.11867 59.204 8.176 62.004 8.176C64.132 8.176 66.0173 8.71733 67.66 9.8C69.3213 10.8827 70.5067 12.404 71.216 14.364H66.484C65.6067 12.6467 64.1133 11.788 62.004 11.788C60.2307 11.788 58.784 12.376 57.664 13.552C56.5627 14.7093 56.012 16.2587 56.012 18.2C56.012 20.1227 56.5627 21.672 57.664 22.848C58.784 24.0053 60.2307 24.584 62.004 24.584C64.0947 24.584 65.588 23.7253 66.484 22.008H71.216C70.5067 23.968 69.3213 25.4893 67.66 26.572C66.0173 27.636 64.132 28.168 62.004 28.168C59.1853 28.168 56.8147 27.2253 54.892 25.34ZM80.6675 24.892C81.7689 24.892 82.7115 24.4907 83.4955 23.688C84.2982 22.8667 84.6995 21.7187 84.6995 20.244C84.6995 18.7507 84.3075 17.6027 83.5235 16.8C82.7395 15.9973 81.7875 15.596 80.6675 15.596C79.5662 15.596 78.6329 15.9973 77.8675 16.8C77.1022 17.6027 76.7195 18.7507 76.7195 20.244C76.7195 21.7373 77.1022 22.8853 77.8675 23.688C78.6329 24.4907 79.5662 24.892 80.6675 24.892ZM74.9835 26.012C73.4715 24.5373 72.7155 22.6053 72.7155 20.216C72.7155 17.8267 73.4809 15.904 75.0115 14.448C76.5422 12.992 78.4369 12.264 80.6955 12.264C82.9729 12.264 84.8769 12.992 86.4075 14.448C87.9382 15.904 88.7035 17.8267 88.7035 20.216C88.7035 22.6053 87.9289 24.5373 86.3795 26.012C84.8489 27.4867 82.9449 28.224 80.6675 28.224C78.3902 28.224 76.4955 27.4867 74.9835 26.012ZM90.9864 28V7.28H94.9344V28H90.9864ZM98.2948 28V7.28H102.243V28H98.2948ZM115.487 23.604C116.309 22.7827 116.719 21.6627 116.719 20.244C116.719 18.8253 116.309 17.7147 115.487 16.912C114.666 16.0907 113.705 15.68 112.603 15.68C111.502 15.68 110.541 16.0813 109.719 16.884C108.917 17.6867 108.515 18.7973 108.515 20.216C108.515 21.6347 108.926 22.7547 109.747 23.576C110.569 24.3973 111.521 24.808 112.603 24.808C113.705 24.808 114.666 24.4067 115.487 23.604ZM106.583 25.984C105.202 24.472 104.511 22.5493 104.511 20.216C104.511 17.8827 105.202 15.9787 106.583 14.504C107.965 13.0107 109.719 12.264 111.847 12.264C113.975 12.264 115.599 13.1413 116.719 14.896V12.488H120.639V28H116.719V25.396C115.543 27.2813 113.91 28.224 111.819 28.224C109.729 28.224 107.983 27.4773 106.583 25.984ZM134.878 23.576C135.699 22.7547 136.11 21.6347 136.11 20.216C136.11 18.7973 135.699 17.6867 134.878 16.884C134.075 16.0813 133.123 15.68 132.022 15.68C130.921 15.68 129.959 16.0907 129.138 16.912C128.335 17.7147 127.934 18.8253 127.934 20.244C127.934 21.6627 128.335 22.7827 129.138 23.604C129.959 24.4067 130.921 24.808 132.022 24.808C133.123 24.808 134.075 24.3973 134.878 23.576ZM127.934 14.896C129.035 13.1413 130.65 12.264 132.778 12.264C134.906 12.264 136.661 13.0107 138.042 14.504C139.423 15.9787 140.114 17.892 140.114 20.244C140.114 22.5773 139.423 24.4907 138.042 25.984C136.661 27.4773 134.915 28.224 132.806 28.224C130.715 28.224 129.091 27.2813 127.934 25.396V28H123.986V7.28H127.934V14.896Z" fill="white"/>
<path d="M145.953 25.76C145.953 26.3947 145.729 26.9267 145.281 27.356C144.851 27.7853 144.319 28 143.685 28C143.069 28 142.546 27.7853 142.117 27.356C141.687 26.9267 141.473 26.3947 141.473 25.76C141.473 25.1253 141.687 24.5933 142.117 24.164C142.546 23.7347 143.069 23.52 143.685 23.52C144.319 23.52 144.851 23.7347 145.281 24.164C145.729 24.5933 145.953 25.1253 145.953 25.76Z" fill="#FAB8C4"/>
<rect width="40" height="40" rx="11.4286" fill="white"/>
<circle cx="12.8569" cy="12.8569" r="5.71429" fill="#5956E9"/>
<circle cx="12.8569" cy="27.143" r="5.71429" fill="#FFDEE4"/>
<circle cx="27.143" cy="12.8569" r="5.71429" fill="#FAB8C4"/>
<circle cx="27.143" cy="27.143" r="5.71429" fill="#5956E9"/>
</svg>
