<svg width="59" height="51" viewBox="0 0 59 51" fill="none" xmlns="http://www.w3.org/2000/svg">
<path fill-rule="evenodd" clip-rule="evenodd" d="M19.7951 1.52686C22.417 0.0913064 25.583 0.0913061 28.2049 1.52686L43.4049 9.84927C46.237 11.3999 48 14.3853 48 17.6305V33.3812C48 36.6264 46.237 39.6118 43.4049 41.1624L28.2049 49.4848C25.583 50.9204 22.417 50.9204 19.7951 49.4848L4.59508 41.1624C1.76298 39.6118 0 36.6264 0 33.3812V17.6305C0 14.3853 1.76297 11.3999 4.59508 9.84927L19.7951 1.52686Z" fill="#2B3036"/>
<path fill-rule="evenodd" clip-rule="evenodd" d="M28.0503 19.4043V25.5211C28.0503 30.9093 25.1793 33.5525 20.6436 33.5525C16.108 33.5525 13.3335 30.8839 13.3335 25.6482V19.4043C13.3335 18.3114 14.1538 17.4473 15.1912 17.4473C16.2286 17.4473 17.0489 18.3114 17.0489 19.4043V25.5465C17.0489 28.4439 18.4241 29.9435 20.6919 29.9435C22.9597 29.9435 24.3349 28.4947 24.3349 25.6736V19.4043C24.3349 18.3114 25.1552 17.4473 26.1926 17.4473C27.23 17.4473 28.0503 18.3114 28.0503 19.4043ZM32.8091 33.4254C31.7717 33.4254 30.9514 32.5613 30.9514 31.4684V19.4043C30.9514 18.3114 31.7717 17.4473 32.8091 17.4473C33.8465 17.4473 34.6668 18.3114 34.6668 19.4043V31.4684C34.6668 32.5613 33.8465 33.4254 32.8091 33.4254Z" fill="white"/>
<path fill-rule="evenodd" clip-rule="evenodd" d="M47.3301 23.0986C53.5876 23.0986 58.6602 17.9278 58.6602 11.5493C58.6602 5.1708 53.5876 0 47.3301 0C41.0727 0 36 5.1708 36 11.5493C36 17.9278 41.0727 23.0986 47.3301 23.0986Z" fill="#2D68FF"/>
<path fill-rule="evenodd" clip-rule="evenodd" d="M47.3333 16.1047C49.2469 16.1047 50.6667 15.113 50.6667 13.4168V13.3907C50.6667 12.3077 50.1481 11.7205 49.2716 11.2377C49.9383 10.8071 50.3704 10.2199 50.3704 9.24132V9.21522C50.3704 7.80601 49.1605 6.70996 47.3333 6.70996C45.5062 6.70996 44.2963 7.81906 44.2963 9.21522V9.24132C44.2963 10.2199 44.7284 10.8071 45.3951 11.2377C44.4815 11.6813 44 12.3338 44 13.4429V13.469C44 15.0608 45.4198 16.1047 47.3333 16.1047ZM47.3333 10.5722C46.5802 10.5722 46.0988 10.0895 46.0988 9.45009V9.424C46.0988 8.86292 46.5556 8.36709 47.3333 8.36709C48.1111 8.36709 48.5679 8.87597 48.5679 9.43704V9.46314C48.5679 10.1025 48.0864 10.5722 47.3333 10.5722ZM45.8395 13.3124C45.8395 13.9387 46.3951 14.4476 47.3333 14.4476C48.2716 14.4476 48.8272 13.9517 48.8272 13.3124V13.2863C48.8272 12.5817 48.1975 12.1641 47.3333 12.1641C46.4691 12.1641 45.8395 12.5817 45.8395 13.2863V13.3124Z" fill="white"/>
</svg>
